HIERARCHY
ROOT hip
{
	OFFSET 0.000000 0.000000 0.000000 
	CHANNELS 6 Xposition Yposition Zposition Xrotation Zrotation Yrotation
	JOINT abdomen
	{
		OFFSET 0.000000 3.402643 0.000000 
		CHANNELS 3 Xrotation Zrotation Yrotation
		JOINT chest
		{
			OFFSET 0.000000 8.438565 -0.680529 
			CHANNELS 3 Xrotation Zrotation Yrotation
			JOINT neck
			{
				OFFSET 0.000000 10.207942 -0.272212 
				CHANNELS 3 Xrotation Zrotation Yrotation
				JOINT head
				{
					OFFSET 0.000000 3.130431 0.000000 
					CHANNELS 3 Xrotation Zrotation Yrotation
					End Site
					{
						OFFSET 0.000000 3.130435 0.000000 
					}
				}
			}
			JOINT lCollar
			{
				OFFSET 3.470700 6.669187 -0.816635 
				CHANNELS 3 Yrotation Zrotation Xrotation
				JOINT lShldr
				{
					OFFSET 3.198488 0.000000 0.000000 
					CHANNELS 3 Zrotation Yrotation Xrotation
					JOINT lForeArm
					{
						OFFSET 10.139888 0.000000 0.000000 
						CHANNELS 3 Yrotation Zrotation Xrotation
						JOINT lHand
						{
							OFFSET 8.370511 0.000000 0.000000 
							CHANNELS 3 Zrotation Yrotation Xrotation
							End Site
							{
								OFFSET 4.083176 0.000000 0.000000 
							}
						}
					}
				}
			}
			JOINT rCollar
			{
				OFFSET -3.470700 6.669187 -0.816635 
				CHANNELS 3 Yrotation Zrotation Xrotation
				JOINT rShldr
				{
					OFFSET -3.198488 0.000000 0.000000 
					CHANNELS 3 Zrotation Yrotation Xrotation
					JOINT rForeArm
					{
						OFFSET -10.139888 0.000000 0.000000 
						CHANNELS 3 Yrotation Zrotation Xrotation
						JOINT rHand
						{
							OFFSET -8.370511 0.000000 0.000000 
							CHANNELS 3 Zrotation Yrotation Xrotation
							End Site
							{
								OFFSET -4.083176 0.000000 0.000000 
							}
						}
					}
				}
			}
		}
	}
	JOINT lThigh
	{
		OFFSET 5.308129 -1.633274 1.361059 
		CHANNELS 3 Xrotation Zrotation Yrotation
		JOINT lShin
		{
			OFFSET -2.041588 -20.007561 0.000000 
			CHANNELS 3 Xrotation Zrotation Yrotation
			JOINT lFoot
			{
				OFFSET 0.000000 -19.190928 -1.224953 
				CHANNELS 3 Xrotation Yrotation Zrotation
				End Site
				{
					OFFSET 0.000000 -2.449906 4.627600 
				}
			}
		}
	}
	JOINT rThigh
	{
		OFFSET -5.308129 -1.633274 1.361059 
		CHANNELS 3 Xrotation Zrotation Yrotation
		JOINT rShin
		{
			OFFSET 2.041588 -20.007561 0.000000 
			CHANNELS 3 Xrotation Zrotation Yrotation
			JOINT rFoot
			{
				OFFSET 0.000000 -19.190928 -1.224953 
				CHANNELS 3 Xrotation Yrotation Zrotation
				End Site
				{
					OFFSET 0.000000 -2.449906 4.627600 
				}
			}
		}
	}
}
MOTION
Frames: 6
Frame Time: 0.011111
29.301855 49.851776 -76.821106 17.712109 12.527214 -33.794121 32.849506 -5.200785 -9.243912 -26.825436 11.157993 -1.950024 -15.095260 -5.175821 0.070380 31.689735 17.593771 3.794660 6.655530 -7.385053 2.814211 -66.873177 -56.017754 17.759392 -51.595993 8.046394 8.794929 8.524705 12.647240 -50.550182 -7.245022 1.299557 2.988899 69.652176 26.201040 18.285196 67.344841 -9.387365 15.808470 -8.534408 -12.637552 59.017437 -4.509291 -3.240594 -2.681785 35.420082 -5.009573 -5.549013 -22.160416 -8.906713 -6.317254 -59.807255 -10.077144 -1.167207 63.639019 2.314588 8.419994 -27.683256 0.377909 2.138641 
29.056030 49.723885 -76.210587 17.916031 12.560192 -33.582867 32.758198 -4.990588 -9.497327 -26.667204 11.250374 -2.026942 -14.886508 -4.831993 0.124325 31.087381 17.282566 3.850421 6.655530 -7.385053 2.814211 -66.462326 -56.303440 17.865444 -51.490265 8.020983 8.755158 8.524705 12.647240 -50.345104 -7.245022 1.299557 2.988899 69.437904 25.905472 18.470007 67.926559 -9.348301 16.077116 -8.534408 -12.637552 58.939316 -3.650503 -3.436650 -3.301979 34.962917 -5.038550 -5.507169 -21.954481 -8.546059 -6.127050 -60.581566 -10.126376 -1.315869 63.873238 2.285307 8.440063 -26.663223 2.284479 3.176095 
28.821098 49.544960 -75.582336 18.080254 12.397359 -33.520893 32.865059 -4.655227 -9.593242 -26.728281 11.358762 -2.108792 -13.236957 -5.519568 0.160486 28.587130 18.390301 3.974219 6.655530 -7.385053 2.814211 -66.045212 -56.471169 18.092762 -51.301926 7.981827 8.674134 8.524705 12.647240 -49.866589 -7.245022 1.299557 2.988899 69.105003 25.443409 18.805290 68.626381 -9.299002 16.418705 -8.534408 -12.637552 59.320171 -2.680209 -3.352378 -3.281570 34.525829 -5.067955 -5.447777 -21.545662 -8.766671 -6.196924 -61.207134 -9.999635 -1.538201 64.233879 2.246413 8.483303 -25.958879 3.497242 3.835815 
28.577454 49.375378 -74.929504 18.171825 12.248797 -33.540260 33.027744 -4.385013 -9.715282 -26.698586 11.382930 -2.164323 -14.621113 -4.884456 0.242334 30.552692 17.599520 4.130128 6.655530 -7.385053 2.814211 -65.462654 -56.817753 17.890852 -50.873569 7.894105 8.500579 8.524705 12.647240 -49.554089 -7.245022 1.299557 2.988899 69.027367 25.185177 18.691462 69.091202 -9.259331 16.655783 -8.534408 -12.637552 59.183453 -1.589459 -3.372718 -3.374998 34.009132 -5.097343 -5.390966 -21.129618 -8.605842 -6.109245 -61.673161 -9.843048 -1.818138 64.595505 2.207202 8.497290 -25.685715 3.585695 3.881028 
28.313271 49.225082 -74.291611 18.245588 12.199414 -33.493259 33.152565 -4.235233 -10.026321 -26.671459 11.598411 -2.270967 -14.973689 -4.473005 0.308868 30.769156 17.064634 4.200078 6.655530 -7.385053 2.814211 -65.039581 -56.965645 17.436047 -50.622684 7.841518 8.408906 8.524705 12.647240 -49.544323 -7.245022 1.299557 2.988899 68.923729 25.066471 18.500843 69.374138 -9.227009 16.776903 -8.534408 -12.637552 58.753765 -0.614384 -3.441464 -3.439966 33.561935 -5.126729 -5.320661 -20.517538 -8.507465 -6.007120 -62.157795 -9.814915 -1.378030 65.180634 2.123627 8.549335 -25.423622 5.996632 5.075109 
28.023882 49.070118 -73.658379 18.392996 12.193019 -33.401901 33.197868 -4.201327 -10.203759 -26.695845 11.914128 -2.346942 -14.431985 -4.602924 0.338452 29.878399 17.316614 4.255260 6.655530 -7.385053 2.814211 -64.951843 -56.824104 17.284115 -50.727058 7.863269 8.449866 8.524705 12.647240 -49.720104 -7.245022 1.299557 2.988899 68.750862 24.767269 18.624756 69.944702 -9.170856 17.067259 -8.534408 -12.637552 59.124855 0.262805 -3.461400 -3.531495 33.073158 -5.166503 -5.259250 -19.533686 -8.692143 -5.970756 -62.628281 -9.745190 -1.309441 65.727638 2.060727 8.571848 -24.983568 7.124600 5.610392 
